<svg width="16" height="20" viewBox="0 0 16 20" fill="none" xmlns="http://www.w3.org/2000/svg">
<path d="M1 0C0.735027 0.000791363 0.481132 0.106402 0.293767 0.293767C0.106402 0.481133 0.000791363 0.735027 0 1V19C0.000791363 19.265 0.106402 19.5189 0.293767 19.7062C0.481132 19.8936 0.735027 19.9992 1 20H15C15.265 19.9992 15.5189 19.8936 15.7062 19.7062C15.8936 19.5189 15.9992 19.265 16 19V1C15.9992 0.735027 15.8936 0.481133 15.7062 0.293767C15.5189 0.106402 15.265 0.000791363 15 0H12V1.5C12 1.89782 11.842 2.27936 11.5607 2.56066C11.2794 2.84196 10.8978 3 10.5 3H5.5C5.10218 3 4.72064 2.84196 4.43934 2.56066C4.15804 2.27936 4 1.89782 4 1.5V0H1ZM13.5 16H2.5C2.36739 16 2.24021 15.9473 2.14645 15.8536C2.05268 15.7598 2 15.6326 2 15.5C2 15.3674 2.05268 15.2402 2.14645 15.1464C2.24021 15.0527 2.36739 15 2.5 15H13.5C13.6326 15 13.7598 15.0527 13.8536 15.1464C13.9473 15.2402 14 15.3674 14 15.5C14 15.6326 13.9473 15.7598 13.8536 15.8536C13.7598 15.9473 13.6326 16 13.5 16ZM13.5 11H2.5C2.36739 11 2.24021 10.9473 2.14645 10.8536C2.05268 10.7598 2 10.6326 2 10.5C2 10.3674 2.05268 10.2402 2.14645 10.1464C2.24021 10.0527 2.36739 10 2.5 10H13.5C13.6326 10 13.7598 10.0527 13.8536 10.1464C13.9473 10.2402 14 10.3674 14 10.5C14 10.6326 13.9473 10.7598 13.8536 10.8536C13.7598 10.9473 13.6326 11 13.5 11ZM13.5 5C13.6326 5 13.7598 5.05268 13.8536 5.14645C13.9473 5.24021 14 5.36739 14 5.5C14 5.63261 13.9473 5.75979 13.8536 5.85355C13.7598 5.94732 13.6326 6 13.5 6H2.5C2.36739 6 2.24021 5.94732 2.14645 5.85355C2.05268 5.75979 2 5.63261 2 5.5C2 5.36739 2.05268 5.24021 2.14645 5.14645C2.24021 5.05268 2.36739 5 2.5 5H13.5Z" fill="#002047"/>
</svg>
