<svg width="27" height="18" viewBox="0 0 27 18" fill="none" xmlns="http://www.w3.org/2000/svg">
<path fill-rule="evenodd" clip-rule="evenodd" d="M18.0512 0.346283C19.4477 0.35897 20.7301 1.55613 20.7527 3.0306C20.7727 5.1621 20.7591 7.29269 20.7527 9.42419C20.7401 10.8225 19.5375 12.1022 18.0684 12.1257C13.2191 12.171 8.36974 12.1402 3.51949 12.1257C2.12296 12.1121 0.841521 10.9159 0.818865 9.4405C0.798927 7.30991 0.811615 5.17841 0.817958 3.04782C0.831552 1.65219 2.03324 0.368939 3.50318 0.346283C8.35252 0.30097 13.2019 0.330876 18.0512 0.346283ZM2.62955 8.66566C2.63046 8.91216 2.63046 9.15866 2.63046 9.40607C2.63046 9.8746 3.03918 10.3023 3.51949 10.3132C3.77686 10.3168 4.03424 10.3205 4.29161 10.3241C4.28527 10.306 4.27893 10.2878 4.27258 10.2697C3.99527 9.52841 3.3754 8.93844 2.62955 8.66566ZM18.9493 8.66566C18.2035 8.94388 17.5809 9.55378 17.2954 10.3141C17.5419 10.3132 17.7875 10.3132 18.0331 10.3132C18.5025 10.3132 18.9303 9.9045 18.9402 9.42419C18.9448 9.17135 18.9475 8.9185 18.9493 8.66566ZM10.8057 3.06413C12.273 3.07863 13.6468 4.21688 13.9078 5.67594C14.2586 7.63706 12.4279 9.76585 10.2058 9.35441C8.91893 9.11516 7.83868 7.99866 7.64746 6.69819C7.39008 4.94188 8.82105 3.10763 10.7242 3.06503C10.7514 3.06413 10.7786 3.06413 10.8057 3.06413ZM4.27802 2.15788C4.03152 2.15788 3.78502 2.15788 3.53852 2.15788C3.06999 2.15969 2.64133 2.56569 2.63046 3.04782C2.62683 3.30429 2.62411 3.56166 2.6214 3.81813C2.63952 3.81269 2.65674 3.80635 2.67396 3.8C3.41527 3.5236 4.00524 2.90281 4.27802 2.15788ZM17.2927 2.14791C17.5718 2.89375 18.1808 3.51725 18.942 3.80272C18.9411 3.55713 18.9411 3.31154 18.9411 3.06594C18.9411 2.5965 18.5324 2.16875 18.0512 2.15878C17.7984 2.15425 17.5455 2.15063 17.2927 2.14791Z" fill="#002047"/>
<path d="M22.6873 3.78511C23.1206 3.86336 23.4513 4.23863 23.4715 4.68289C23.4715 6.76535 23.4782 8.84781 23.4715 10.9294C23.4521 12.9623 21.7113 14.8377 19.5329 14.8445H4.05454C3.25437 14.8083 2.81348 13.6236 3.59009 13.1608C3.71798 13.0843 3.7895 13.0439 4.05454 13.0321C9.22241 13.0321 14.3911 13.0809 19.559 13.0321C20.6587 13.0144 21.6558 12.0493 21.6591 10.9033V4.68289C21.6827 4.15617 22.1471 3.73631 22.6873 3.78511Z" fill="#002047"/>
<path d="M25.4054 6.50386C25.8387 6.58211 26.1694 6.95738 26.1896 7.40164C26.1896 9.12987 26.1946 10.8589 26.1896 12.5872C26.1652 15.1585 23.9632 17.5548 21.1841 17.5632H6.77263C6.1542 17.5354 5.69732 16.8674 5.93964 16.3011C6.0566 16.026 6.31743 15.819 6.61108 15.7651C6.68176 15.7525 6.70027 15.7542 6.77263 15.7508C11.5829 15.7508 16.3923 15.766 21.2026 15.7508C22.8509 15.7357 24.3722 14.3129 24.3772 12.5552V7.40164C24.4008 6.87492 24.8652 6.45506 25.4054 6.50386Z" fill="#002047"/>
<path fill-rule="evenodd" clip-rule="evenodd" d="M10.7773 4.87695C9.88558 4.88511 9.15152 5.93545 9.55027 6.80273C9.90461 7.57395 11.0655 7.83314 11.7117 7.23139C12.463 6.53267 12.095 4.91411 10.8217 4.87786C10.8072 4.87695 10.7927 4.87695 10.7773 4.87695Z" fill="#002047"/>
</svg>
