<svg width="20" height="20" viewBox="0 0 20 20" fill="none" xmlns="http://www.w3.org/2000/svg">
<path d="M10.2141 0.000359222C10.7641 -0.00964078 11.2851 0.189359 11.6741 0.570359C12.0651 0.939359 12.2741 1.45036 12.2741 1.99036C12.2741 3.09036 13.1841 3.98136 14.3151 3.98136C14.6641 3.98136 15.0141 3.88036 15.3251 3.71036C16.2941 3.18936 17.5041 3.52036 18.0541 4.45036L18.7351 5.62036C18.9051 5.92036 19.0041 6.26036 19.0041 6.61036C19.0041 7.32036 18.6151 7.98136 17.9851 8.33036C17.6741 8.50036 17.4141 8.76036 17.2351 9.06136C16.7041 10.0004 17.0351 11.1894 17.9851 11.7314C18.9441 12.2804 19.2741 13.4814 18.7351 14.4304L18.0541 15.5614C17.6941 16.1804 17.0241 16.5614 16.3041 16.5614C15.9441 16.5614 15.5841 16.4704 15.2851 16.2904C14.9641 16.1204 14.6151 16.0204 14.2641 16.0204C13.7241 16.0204 13.2041 16.2314 12.8251 16.6104C12.4341 16.9814 12.2241 17.4904 12.2241 18.0204C12.2241 19.1104 11.3151 20.0004 10.1841 20.0004H8.81513C8.27413 20.0004 7.76413 19.7804 7.39413 19.4104C7.01413 19.0304 6.81513 18.5304 6.81513 18.0104C6.81513 16.9104 5.91413 16.0204 4.78513 16.0204C4.41413 16.0204 4.05413 16.1204 3.74413 16.3114C3.27413 16.5704 2.71413 16.6404 2.19413 16.5104C1.67413 16.3704 1.22413 16.0304 0.954129 15.5804L0.315129 14.4504C0.0141288 13.9814 -0.0758712 13.4204 0.0651288 12.8904C0.204129 12.3604 0.565129 11.9104 1.05413 11.6404C1.36513 11.4704 1.62413 11.2204 1.80413 10.9104C2.32513 9.97036 1.99413 8.79036 1.05413 8.24036C0.104129 7.70036 -0.225871 6.51036 0.315129 5.57036L0.954129 4.45036C1.22413 3.98136 1.67413 3.64036 2.20413 3.50036C2.73513 3.36036 3.29413 3.43936 3.76413 3.71036C4.08413 3.88036 4.43413 3.97036 4.78513 3.97036C5.32513 3.97036 5.84413 3.76036 6.22413 3.39036C6.60413 3.02036 6.81513 2.51036 6.81513 1.99036C6.81513 0.890359 7.72413 0.000359222 8.85413 0.000359222H10.2141ZM10.6151 7.48136C9.56513 7.05036 8.35413 7.28036 7.54413 8.07036C6.74413 8.85036 6.49413 10.0404 6.93413 11.0614C7.36513 12.0904 8.38413 12.7604 9.52413 12.7604H9.53513C10.2851 12.7704 10.9851 12.4814 11.5141 11.9604C12.0441 11.4504 12.3441 10.7504 12.3441 10.0204C12.3541 8.91036 11.6641 7.90036 10.6151 7.48136Z" fill="#002047"/>
</svg>
