<svg width="16" height="21" viewBox="0 0 16 21" fill="none" xmlns="http://www.w3.org/2000/svg">
<path d="M10.5 0H5.5C5.22386 0 5 0.223858 5 0.5V2.5C5 2.77614 5.22386 3 5.5 3H10.5C10.7761 3 11 2.77614 11 2.5V0.5C11 0.223858 10.7761 0 10.5 0Z" fill="#A7A7A7"/>
<path d="M1 1C0.735027 1.00079 0.481132 1.1064 0.293767 1.29377C0.106402 1.48113 0.000791363 1.73503 0 2V20C0.000791363 20.265 0.106402 20.5189 0.293767 20.7062C0.481132 20.8936 0.735027 20.9992 1 21H15C15.265 20.9992 15.5189 20.8936 15.7062 20.7062C15.8936 20.5189 15.9992 20.265 16 20V2C15.9992 1.73503 15.8936 1.48113 15.7062 1.29377C15.5189 1.1064 15.265 1.00079 15 1H12V2.5C12 2.89782 11.842 3.27936 11.5607 3.56066C11.2794 3.84196 10.8978 4 10.5 4H5.5C5.10218 4 4.72064 3.84196 4.43934 3.56066C4.15804 3.27936 4 2.89782 4 2.5V1H1ZM13.5 17H2.5C2.36739 17 2.24021 16.9473 2.14645 16.8536C2.05268 16.7598 2 16.6326 2 16.5C2 16.3674 2.05268 16.2402 2.14645 16.1464C2.24021 16.0527 2.36739 16 2.5 16H13.5C13.6326 16 13.7598 16.0527 13.8536 16.1464C13.9473 16.2402 14 16.3674 14 16.5C14 16.6326 13.9473 16.7598 13.8536 16.8536C13.7598 16.9473 13.6326 17 13.5 17ZM13.5 12H2.5C2.36739 12 2.24021 11.9473 2.14645 11.8536C2.05268 11.7598 2 11.6326 2 11.5C2 11.3674 2.05268 11.2402 2.14645 11.1464C2.24021 11.0527 2.36739 11 2.5 11H13.5C13.6326 11 13.7598 11.0527 13.8536 11.1464C13.9473 11.2402 14 11.3674 14 11.5C14 11.6326 13.9473 11.7598 13.8536 11.8536C13.7598 11.9473 13.6326 12 13.5 12ZM13.5 6C13.6326 6 13.7598 6.05268 13.8536 6.14645C13.9473 6.24021 14 6.36739 14 6.5C14 6.63261 13.9473 6.75979 13.8536 6.85355C13.7598 6.94732 13.6326 7 13.5 7H2.5C2.36739 7 2.24021 6.94732 2.14645 6.85355C2.05268 6.75979 2 6.63261 2 6.5C2 6.36739 2.05268 6.24021 2.14645 6.14645C2.24021 6.05268 2.36739 6 2.5 6H13.5Z" fill="#A7A7A7"/>
</svg>
