<svg width="29" height="29" viewBox="0 0 29 29" fill="none" xmlns="http://www.w3.org/2000/svg">
<path fill-rule="evenodd" clip-rule="evenodd" d="M19.0512 6.34628C20.4477 6.35897 21.7301 7.55613 21.7527 9.0306C21.7727 11.1621 21.7591 13.2927 21.7527 15.4242C21.7401 16.8225 20.5375 18.1022 19.0684 18.1257C14.2191 18.171 9.36974 18.1402 4.51949 18.1257C3.12296 18.1121 1.84152 16.9159 1.81886 15.4405C1.79893 13.3099 1.81161 11.1784 1.81796 9.04782C1.83155 7.65219 3.03324 6.36894 4.50318 6.34628C9.35252 6.30097 14.2019 6.33088 19.0512 6.34628ZM3.62955 14.6657C3.63046 14.9122 3.63046 15.1587 3.63046 15.4061C3.63046 15.8746 4.03918 16.3023 4.51949 16.3132C4.77686 16.3168 5.03424 16.3205 5.29161 16.3241C5.28527 16.306 5.27893 16.2878 5.27258 16.2697C4.99527 15.5284 4.3754 14.9384 3.62955 14.6657ZM19.9493 14.6657C19.2035 14.9439 18.5809 15.5538 18.2954 16.3141C18.5419 16.3132 18.7875 16.3132 19.0331 16.3132C19.5025 16.3132 19.9303 15.9045 19.9402 15.4242C19.9448 15.1713 19.9475 14.9185 19.9493 14.6657ZM11.8057 9.06413C13.273 9.07863 14.6468 10.2169 14.9078 11.6759C15.2586 13.6371 13.4279 15.7658 11.2058 15.3544C9.91893 15.1152 8.83868 13.9987 8.64746 12.6982C8.39008 10.9419 9.82105 9.10763 11.7242 9.06503C11.7514 9.06413 11.7786 9.06413 11.8057 9.06413ZM5.27802 8.15788C5.03152 8.15788 4.78502 8.15788 4.53852 8.15788C4.06999 8.15969 3.64133 8.56569 3.63046 9.04782C3.62683 9.30429 3.62411 9.56166 3.6214 9.81813C3.63952 9.81269 3.65674 9.80635 3.67396 9.8C4.41527 9.5236 5.00524 8.90281 5.27802 8.15788ZM18.2927 8.14791C18.5718 8.89375 19.1808 9.51725 19.942 9.80272C19.9411 9.55713 19.9411 9.31154 19.9411 9.06594C19.9411 8.5965 19.5324 8.16875 19.0512 8.15878C18.7984 8.15425 18.5455 8.15063 18.2927 8.14791Z" fill="#A7A7A7"/>
<path d="M23.6875 9.78511C24.1208 9.86336 24.4515 10.2386 24.4717 10.6829C24.4717 12.7653 24.4784 14.8478 24.4717 16.9294C24.4523 18.9623 22.7115 20.8377 20.5331 20.8445H5.05473C4.25456 20.8083 3.81366 19.6236 4.59027 19.1608C4.71817 19.0843 4.78969 19.0439 5.05473 19.0321C10.2226 19.0321 15.3913 19.0809 20.5592 19.0321C21.6589 19.0144 22.6559 18.0493 22.6593 16.9033V10.6829C22.6829 10.1562 23.1473 9.73631 23.6875 9.78511Z" fill="#A7A7A7"/>
<path d="M26.4053 12.5039C26.8387 12.5821 27.1693 12.9574 27.1895 13.4016C27.1895 15.1299 27.1946 16.8589 27.1895 18.5872C27.1651 21.1585 24.9632 23.5548 22.184 23.5632H7.77257C7.15414 23.5354 6.69726 22.8674 6.93958 22.3011C7.05654 22.026 7.31737 21.819 7.61102 21.7651C7.6817 21.7525 7.70021 21.7542 7.77257 21.7508C12.5828 21.7508 17.3923 21.766 22.2026 21.7508C23.8509 21.7357 25.3721 20.3129 25.3772 18.5552V13.4016C25.4007 12.8749 25.8652 12.4551 26.4053 12.5039Z" fill="#A7A7A7"/>
<path fill-rule="evenodd" clip-rule="evenodd" d="M11.7771 10.877C10.8854 10.8851 10.1513 11.9355 10.5501 12.8027C10.9044 13.574 12.0653 13.8331 12.7115 13.2314C13.4628 12.5327 13.0948 10.9141 11.8216 10.8779C11.8071 10.877 11.7926 10.877 11.7771 10.877Z" fill="#A7A7A7"/>
</svg>
