<svg width="25" height="21" viewBox="0 0 25 21" fill="none" xmlns="http://www.w3.org/2000/svg">
<path d="M19.4445 20.222C19.3022 20.222 19.1656 20.2184 19.0325 20.2128C17.495 20.1581 16.2887 19.797 15.5594 19.2083C15.5589 19.2222 15.5556 19.2354 15.5556 19.2494C15.5556 20.2964 17.1184 20.9997 19.4445 20.9997C21.7705 20.9997 23.3333 20.2964 23.3333 19.2494C23.3333 19.2354 23.33 19.2222 23.3295 19.2083C22.6002 19.797 21.394 20.1581 19.8564 20.2128C19.7233 20.2184 19.5868 20.222 19.4445 20.222ZM6.0278 19.6386C5.88551 19.6386 5.74899 19.635 5.61581 19.6295C4.07829 19.5748 2.87208 19.2137 2.14277 18.625C2.14223 18.6388 2.13892 18.6519 2.13892 18.6658C2.13892 19.7129 3.70178 20.4164 6.0278 20.4164C8.35382 20.4164 9.91669 19.7129 9.91669 18.6658C9.91669 18.6581 9.91471 18.6508 9.91455 18.6431C9.18976 19.2275 7.98767 19.5786 6.43006 19.63C6.29997 19.6353 6.16655 19.6386 6.0278 19.6386Z" fill="#A7A7A7"/>
<path d="M9.91282 17.0703C9.18351 17.6589 7.9773 18.02 6.4398 18.0748C6.30662 18.0803 6.17011 18.0839 6.0278 18.0839C5.8855 18.0839 5.74899 18.0803 5.61581 18.0748C4.0783 18.02 2.8721 17.6589 2.14279 17.0703C2.14223 17.0841 2.13892 17.0973 2.13892 17.1113C2.13892 18.1583 3.70178 18.8617 6.0278 18.8617C8.35382 18.8617 9.91669 18.1583 9.91669 17.1113C9.91669 17.0973 9.91338 17.0841 9.91282 17.0703Z" fill="#A7A7A7"/>
<path d="M9.9145 15.5312C9.18972 16.1157 7.98765 16.4668 6.43009 16.5183C6.29999 16.5235 6.16656 16.5269 6.0278 16.5269C5.88904 16.5269 5.75561 16.5235 5.62551 16.5183C4.06795 16.4668 2.86589 16.1157 2.1411 15.5312C2.14092 15.5391 2.13892 15.5466 2.13892 15.5545C2.13892 16.6013 3.70178 17.3047 6.0278 17.3047C8.35382 17.3047 9.91669 16.6013 9.91669 15.5545C9.91669 15.5466 9.91468 15.5391 9.9145 15.5312Z" fill="#A7A7A7"/>
<path d="M6.0278 12.25C3.70225 12.25 2.13892 12.9539 2.13892 14C2.13892 15.0461 3.70225 15.75 6.0278 15.75C8.35335 15.75 9.91669 15.0461 9.91669 14C9.91669 12.9539 8.35335 12.25 6.0278 12.25ZM23.3312 17.6711C22.6064 18.2555 21.4043 18.6066 19.8467 18.6581C19.7166 18.6633 19.5832 18.6667 19.4445 18.6667C19.3057 18.6667 19.1723 18.6633 19.0422 18.6581C17.4846 18.6066 16.2825 18.2555 15.5577 17.6711C15.5575 17.6789 15.5556 17.6862 15.5556 17.6941C15.5556 18.7411 17.1184 19.4444 19.4444 19.4444C21.7705 19.4444 23.3333 18.7411 23.3333 17.6941C23.3333 17.6863 23.3314 17.6789 23.3312 17.6711Z" fill="#A7A7A7"/>
<path d="M23.3294 16.0977C22.6001 16.6864 21.3939 17.0476 19.8564 17.1023C19.7232 17.1078 19.5867 17.1114 19.4444 17.1114C19.3021 17.1114 19.1656 17.1078 19.0324 17.1023C17.495 17.0476 16.2887 16.6864 15.5594 16.0977C15.5589 16.1116 15.5555 16.1248 15.5555 16.1388C15.5556 17.1859 17.1184 17.8892 19.4444 17.8892C21.7705 17.8892 23.3333 17.1859 23.3333 16.1388C23.3333 16.1248 23.33 16.1116 23.3294 16.0977Z" fill="#A7A7A7"/>
<path d="M23.3295 14.543C22.6001 15.1317 21.3937 15.4928 19.8561 15.5475C19.723 15.553 19.5866 15.5566 19.4444 15.5566C19.3023 15.5566 19.1659 15.553 19.0328 15.5475C17.4951 15.4928 16.2887 15.1317 15.5594 14.543C15.5588 14.5567 15.5555 14.5698 15.5555 14.5836C15.5555 15.6309 17.1184 16.3344 19.4444 16.3344C21.7704 16.3344 23.3333 15.6309 23.3333 14.5836C23.3333 14.5698 23.33 14.5567 23.3295 14.543Z" fill="#A7A7A7"/>
<path d="M1.16667 16.3327H1.53805C1.42108 16.0901 1.36059 15.8242 1.36111 15.5549H1.16667C1.06362 15.5546 0.96488 15.5135 0.892015 15.4407C0.81915 15.3678 0.77808 15.2691 0.777777 15.166V13.2488C1.0073 13.2816 1.23153 13.3443 1.44472 13.4355C1.52568 13.1852 1.65815 12.9547 1.83361 12.7588C2.54139 11.9441 4.01916 11.4716 6.02777 11.4716C6.47626 11.4706 6.92437 11.4979 7.36944 11.5532C7.14785 10.8977 7.13763 10.1891 7.34021 9.5274C7.54279 8.86571 7.94795 8.2843 8.49857 7.86515C9.04918 7.44599 9.71747 7.21024 10.4092 7.19113C11.1009 7.17202 11.7812 7.37052 12.3542 7.75863C12.9271 8.14675 13.3637 8.7049 13.6025 9.3544C13.8413 10.0039 13.8702 10.712 13.6852 11.3788C13.5001 12.0456 13.1104 12.6375 12.5711 13.071C12.0317 13.5045 11.3699 13.7578 10.6789 13.7952C10.6881 13.8629 10.6933 13.931 10.6944 13.9993C10.6955 14.2708 10.6364 14.5391 10.5214 14.7849C10.636 15.0269 10.6951 15.2914 10.6944 15.5592C10.6938 15.827 10.6333 16.0912 10.5175 16.3327H14.7875C14.7855 16.3074 14.7855 16.2802 14.7836 16.2529C14.7797 16.2148 14.7777 16.1765 14.7778 16.1382C14.7772 15.8689 14.8377 15.603 14.9547 15.3604C14.8379 15.1178 14.7775 14.8519 14.7778 14.5827C14.7764 14.3106 14.8356 14.0416 14.9508 13.7952C14.8362 13.5554 14.7771 13.2929 14.7778 13.0271C14.7778 11.4677 16.5667 10.4993 19.4444 10.4993C19.9649 10.4977 20.4848 10.534 21 10.6082V5.83268C20.9997 5.52334 20.8767 5.22673 20.658 5.00799C20.4393 4.78926 20.1427 4.66626 19.8333 4.66602H1.16667C0.857322 4.66626 0.560718 4.78926 0.341979 5.00799C0.12324 5.22673 0.000245121 5.52334 0 5.83268L0 15.166C0.000245121 15.4753 0.12324 15.772 0.341979 15.9907C0.560718 16.2094 0.857322 16.3324 1.16667 16.3327ZM19.8333 5.44379C19.9364 5.44409 20.0351 5.48516 20.108 5.55803C20.1808 5.63089 20.2219 5.72963 20.2222 5.83268V7.6799C19.59 7.66294 18.9821 7.43283 18.4971 7.02692C18.0121 6.62101 17.6786 6.06312 17.5505 5.44379H19.8333ZM0.777777 5.83268C0.778078 5.72963 0.819147 5.63089 0.892013 5.55803C0.964878 5.48516 1.06362 5.44409 1.16667 5.44379H3.08C2.99555 6.02437 2.72582 6.56213 2.31097 6.97698C1.89612 7.39183 1.35835 7.66157 0.777777 7.74601V5.83268Z" fill="#A7A7A7"/>
<path d="M23.7222 0H5.05558C4.74624 0.000245121 4.44963 0.12324 4.2309 0.341979C4.01216 0.560718 3.88916 0.857322 3.88892 1.16667V3.88889H4.66669V3.87916C4.72167 3.87762 4.77668 3.88087 4.8311 3.88889H11.7211C12.0267 3.46739 12.4277 3.1243 12.8914 2.88771C13.3552 2.65112 13.8683 2.52777 14.3889 2.52777C14.9095 2.52777 15.4227 2.65112 15.8864 2.88771C16.3501 3.1243 16.7511 3.46739 17.0567 3.88889H19.8333C20.3489 3.88947 20.8431 4.09452 21.2076 4.45905C21.5722 4.82357 21.7772 5.31781 21.7778 5.83333V11.582C21.0192 11.3665 20.233 11.264 19.4445 11.2778C17.1189 11.2778 15.5556 11.9817 15.5556 13.0278C15.5556 14.0739 17.1189 14.7778 19.4445 14.7778C21.77 14.7778 23.3333 14.0739 23.3333 13.0278C23.3333 12.4787 22.8995 12.0255 22.1542 11.7173C22.1166 11.7006 22.0765 11.6838 22.0306 11.6667H23.7222C24.0316 11.6664 24.3282 11.5434 24.5469 11.3247C24.7657 11.1059 24.8887 10.8093 24.8889 10.5V1.16667C24.8887 0.857322 24.7657 0.560718 24.5469 0.341979C24.3282 0.12324 24.0316 0.000245121 23.7222 0ZM4.66669 3.10139V1.16667C4.66699 1.06362 4.70806 0.964878 4.78093 0.892012C4.85379 0.819147 4.95253 0.778078 5.05558 0.777777H7.16336C7.07387 1.39144 6.77767 1.9562 6.3237 2.37869C5.86974 2.80119 5.28519 3.05614 4.66669 3.10139ZM24.1111 10.5C24.1108 10.603 24.0697 10.7018 23.9969 10.7746C23.924 10.8475 23.8253 10.8886 23.7222 10.8889H21.8089C21.8933 10.3083 22.1631 9.77054 22.5779 9.35569C22.9928 8.94084 23.5305 8.6711 24.1111 8.58666V10.5ZM24.1111 3.07805C23.5375 2.97806 23.0088 2.70347 22.5971 2.29177C22.1854 1.88008 21.9108 1.35135 21.8108 0.777777H23.7222C23.8253 0.778078 23.924 0.819147 23.9969 0.892012C24.0697 0.964878 24.1108 1.06362 24.1111 1.16667V3.07805Z" fill="#A7A7A7"/>
</svg>
