<svg width="19" height="19" viewBox="0 0 19 19" fill="none" xmlns="http://www.w3.org/2000/svg">
<path d="M16.625 4.43745H1.78125V3.8437L14.8438 2.7987V3.8437H16.625V2.06245C16.625 0.756203 15.5669 -0.160547 14.2749 0.0235157L2.35125 1.72639C1.05806 1.91164 0 3.1312 0 4.43745V16.3125C0 16.9423 0.250222 17.5464 0.695621 17.9918C1.14102 18.4372 1.74511 18.6875 2.375 18.6875H16.625C17.2549 18.6875 17.859 18.4372 18.3044 17.9918C18.7498 17.5464 19 16.9423 19 16.3125V6.81245C19 6.18256 18.7498 5.57847 18.3044 5.13307C17.859 4.68767 17.2549 4.43745 16.625 4.43745ZM14.8438 12.7571C14.6098 12.757 14.3781 12.7108 14.1619 12.6212C13.9458 12.5316 13.7494 12.4003 13.584 12.2348C13.4186 12.0693 13.2874 11.8728 13.1979 11.6566C13.1084 11.4404 13.0624 11.2086 13.0625 10.9746C13.0626 10.7406 13.1087 10.509 13.1984 10.2928C13.288 10.0766 13.4193 9.88026 13.5848 9.71486C13.7503 9.54946 13.9468 9.41827 14.163 9.3288C14.3792 9.23932 14.6109 9.19331 14.8449 9.19339C15.3175 9.19355 15.7707 9.38143 16.1047 9.7157C16.4388 10.05 16.6263 10.5033 16.6262 10.9758C16.626 11.4484 16.4382 11.9016 16.1039 12.2356C15.7696 12.5697 15.3163 12.7572 14.8438 12.7571Z" fill="#A7A7A7"/>
</svg>
