<svg width="83" height="83" viewBox="0 0 83 83" fill="none" xmlns="http://www.w3.org/2000/svg">
<circle cx="41.5" cy="41.5" r="41.5" fill="#65C5B8" fill-opacity="0.17"/>
<path d="M36.8064 22C35.6046 22 34.924 23.0356 34.619 24.1988V25.25H61.2677V24.1988C61.2677 22.9963 60.2871 22 59.0854 22H36.8064ZM34.619 26.55V28.5H61.2677V26.55H34.619ZM34.619 29.8V37.3575C34.619 38.5601 35.6046 39.55 36.8064 39.55H59.0854C60.2871 39.55 61.2677 38.5601 61.2677 37.3575V29.8H34.619ZM39.2629 32.4381H42.9776C43.7517 32.4381 44.369 33.0826 44.369 33.8587V35.5637C44.369 36.3448 43.7517 36.9881 42.9776 36.9881H39.2629C38.4888 36.9881 37.8715 36.345 37.8715 35.5637V33.8587C37.8715 33.0775 38.4888 32.4381 39.2629 32.4381ZM39.2629 33.7381C39.214 33.7381 39.1727 33.7922 39.1727 33.8587V35.5637C39.1727 35.643 39.214 35.688 39.2629 35.688H42.9776C43.0265 35.688 43.0677 35.6403 43.0677 35.5637V33.8587C43.0677 33.7845 43.0265 33.7381 42.9776 33.7381H39.2629ZM35.8783 45.4013C34.619 45.4013 32.4235 46.3593 30.9602 47.1088C31.2125 47.5709 31.369 48.0926 31.369 48.6538V57.4161C32.1968 57.2719 33.0365 57.1395 33.9715 57.1038C34.7751 57.1038 36.2771 58.2426 37.2533 58.9319C38.6443 59.9138 40.1427 61 41.7677 61C42.2569 61 42.7482 60.8391 43.3953 60.5976C46.9513 59.2682 54.452 55.0248 58.8213 52.4688C59.9269 51.8573 60.2902 50.4415 59.6656 49.3597C59.0663 48.3217 57.8498 48.0689 56.6669 48.4723L48.5051 51.2983C48.5636 51.8293 48.4685 52.3798 48.1826 52.875C47.4681 54.1127 45.8694 54.5405 44.6318 53.8259L40.6873 51.5509C39.8719 51.1347 40.5748 49.9259 41.3399 50.4286L45.2792 52.7024C45.9127 53.0681 46.6896 52.8611 47.0553 52.2275C47.421 51.5941 47.2128 50.8185 46.5792 50.4528C43.6785 48.778 38.534 45.4013 35.8783 45.4013ZM24.2215 46.7013C23.1273 46.7013 22.2677 47.586 22.2677 48.6551V57.7513C22.2677 58.8161 23.1279 59.6968 24.2088 59.7038H28.1215C29.3084 59.7038 30.069 58.6954 30.069 57.75V48.6538C30.069 47.5615 29.1854 46.7013 28.1228 46.7013H24.2215ZM25.5202 55.8025C25.8792 55.8025 26.1703 56.0936 26.1703 56.4525C26.1703 56.8115 25.8792 57.1026 25.5202 57.1026C25.1613 57.1026 24.8702 56.8115 24.8702 56.4525C24.8702 56.0936 25.1613 55.8025 25.5202 55.8025Z" fill="#65C5B8"/>
</svg>
