<svg width="45" height="45" viewBox="0 0 45 45" fill="none" xmlns="http://www.w3.org/2000/svg">
<circle cx="22.6" cy="22.4" r="22.4" fill="#1ED760" fill-opacity="0.19"/>
<path d="M22.8954 9.69868C22.8954 8.69971 23.8238 7.95592 24.7956 8.18394C28.216 8.99832 29.1498 12.1201 29.0575 15.6002C28.9977 17.8424 29.1606 19.8349 29.3181 21.165C29.4267 22.0826 28.7154 22.8915 27.787 22.8969L24.4536 22.9241C23.5903 22.9295 22.89 22.2346 22.89 21.3714V9.69868H22.8954Z" fill="url(#paint0_linear_549_366)"/>
<path d="M22.8953 9.72602C22.8953 8.72706 21.9669 7.98326 20.9951 8.21129C17.5748 9.02566 16.6409 12.1474 16.7332 15.6275C16.793 17.8697 16.6301 19.8622 16.4726 21.1924C16.3641 22.1099 17.0753 22.9189 18.0037 22.9243L21.3372 22.9514C22.2004 22.9569 22.9008 22.2619 22.9008 21.3987V9.72602H22.8953Z" fill="url(#paint1_linear_549_366)"/>
<path d="M18.7095 16.9767C18.7095 16.9767 18.4815 16.3469 18.0526 16.2926C17.6888 16.2437 17.2382 16.7052 17.3196 17.335C17.4011 17.9648 17.5802 19.0235 17.5802 19.0235C17.5802 19.0235 17.754 19.7673 18.3783 19.561C18.9918 19.3547 18.7095 16.9767 18.7095 16.9767Z" fill="url(#paint2_linear_549_366)"/>
<path d="M27.1301 16.9631C27.1301 16.9631 27.369 16.3388 27.7979 16.2899C28.1671 16.2465 28.6068 16.7134 28.5145 17.3432C28.4222 17.9729 28.2322 19.0262 28.2322 19.0262C28.2322 19.0262 28.0476 19.77 27.4233 19.5474C26.8044 19.3357 27.1301 16.9631 27.1301 16.9631Z" fill="url(#paint3_linear_549_366)"/>
<path d="M30.5124 27.4761C28.2539 27.058 26.6631 26.2382 25.3493 24.4629H20.4359C19.1221 26.2382 17.5367 27.058 15.2728 27.4761C12.5582 27.981 12.1999 31.2276 12.1999 32.1343V36.3799H33.5907V32.1343C33.5907 31.2276 33.2324 27.981 30.5124 27.4761Z" fill="url(#paint4_linear_549_366)" stroke="url(#paint5_linear_549_366)" stroke-width="0.0542915" stroke-miterlimit="10"/>
<path d="M22.9387 21.8027H20.1644V27.0744C20.1644 27.6065 21.044 27.6174 22.9387 27.6174C24.8335 27.6174 25.713 27.6119 25.713 27.0744V21.8027H22.9387Z" fill="url(#paint6_linear_549_366)"/>
<path d="M27.5915 16.9557C27.5752 13.3779 26.9292 10.5059 22.8953 10.5059C18.8614 10.5059 18.2154 13.3779 18.1991 16.9557C18.1502 16.7331 18.3294 18.5681 18.3457 18.5084C18.9809 21.5379 21.5434 23.7204 22.8953 23.7204C24.2472 23.7204 26.8097 21.5433 27.4449 18.5139C27.4612 18.4759 27.6404 16.7331 27.5915 16.9557Z" fill="url(#paint7_linear_549_366)"/>
<path d="M23.27 20.5998C23.0637 20.5998 23.0419 20.7301 22.8953 20.7301C22.7488 20.7301 22.727 20.5943 22.5207 20.5998C22.2167 20.5998 21.3806 21.0124 21.3806 21.0124C21.3806 21.0124 21.4675 21.0558 21.6629 21.1318C22.1244 21.311 22.1733 21.6096 22.8953 21.6096C23.6174 21.6096 23.6663 21.311 24.1278 21.1318C24.3232 21.0558 24.4101 21.0124 24.4101 21.0124C24.4101 21.0124 23.574 20.5998 23.27 20.5998Z" fill="url(#paint8_linear_549_366)"/>
<path d="M27.6404 19.437C27.7784 19.437 27.8902 19.3252 27.8902 19.1872C27.8902 19.0493 27.7784 18.9375 27.6404 18.9375C27.5025 18.9375 27.3907 19.0493 27.3907 19.1872C27.3907 19.3252 27.5025 19.437 27.6404 19.437Z" fill="url(#paint9_linear_549_366)"/>
<path d="M18.2045 19.5073C18.3424 19.5073 18.4543 19.3955 18.4543 19.2576C18.4543 19.1196 18.3424 19.0078 18.2045 19.0078C18.0666 19.0078 17.9548 19.1196 17.9548 19.2576C17.9548 19.3955 18.0666 19.5073 18.2045 19.5073Z" fill="url(#paint10_linear_549_366)"/>
<path d="M22.0484 30.8598C22.2103 30.8598 22.3416 30.7285 22.3416 30.5666C22.3416 30.4047 22.2103 30.2734 22.0484 30.2734C21.8865 30.2734 21.7552 30.4047 21.7552 30.5666C21.7552 30.7285 21.8865 30.8598 22.0484 30.8598Z" fill="url(#paint11_linear_549_366)"/>
<path d="M22.0484 32.6137C22.2103 32.6137 22.3416 32.4824 22.3416 32.3205C22.3416 32.1586 22.2103 32.0273 22.0484 32.0273C21.8865 32.0273 21.7552 32.1586 21.7552 32.3205C21.7552 32.4824 21.8865 32.6137 22.0484 32.6137Z" fill="url(#paint12_linear_549_366)"/>
<path d="M22.0484 34.3656C22.2103 34.3656 22.3416 34.2344 22.3416 34.0725C22.3416 33.9106 22.2103 33.7793 22.0484 33.7793C21.8865 33.7793 21.7552 33.9106 21.7552 34.0725C21.7552 34.2344 21.8865 34.3656 22.0484 34.3656Z" fill="url(#paint13_linear_549_366)"/>
<path d="M27.787 11.2451C27.2876 9.15489 25.5339 8.00391 22.8954 8.00391C20.2568 8.00391 18.5032 9.15489 18.0037 11.2451C17.2762 14.2691 18.286 17.5701 18.3837 17.8415C18.3837 17.8415 18.1069 16.3919 18.6661 15.1487C18.552 15.9305 18.5792 16.5168 18.5792 16.5168C18.5792 16.5168 21.0223 15.8653 22.8954 14.6818C23.7097 14.166 24.4101 13.5525 24.763 12.8467C24.877 12.6133 25.1702 12.5318 25.3873 12.673C25.9791 13.053 26.4949 13.6231 26.9564 14.4537C27.7327 15.8545 27.2984 17.9447 27.2984 17.9447C27.3907 17.6732 28.5145 14.2691 27.787 11.2451Z" fill="url(#paint14_linear_549_366)"/>
<path d="M25.6697 25.0918L22.8574 27.6435L23.6012 29.4134L26.7175 26.0636L25.6697 25.0918Z" fill="url(#paint15_linear_549_366)"/>
<path d="M19.0515 26.0905L22.1407 29.3915L22.8085 27.5835L20.1102 25.1133L19.0515 26.0905Z" fill="url(#paint16_linear_549_366)"/>
<defs>
<linearGradient id="paint0_linear_549_366" x1="20.1676" y1="10.2738" x2="28.2883" y2="19.2969" gradientUnits="userSpaceOnUse">
<stop/>
<stop offset="1" stop-color="#191919"/>
</linearGradient>
<linearGradient id="paint1_linear_549_366" x1="16.6844" y1="12.2236" x2="25.2524" y2="21.7437" gradientUnits="userSpaceOnUse">
<stop/>
<stop offset="1" stop-color="#191919"/>
</linearGradient>
<linearGradient id="paint2_linear_549_366" x1="17.1195" y1="18.0968" x2="18.3861" y2="17.894" gradientUnits="userSpaceOnUse">
<stop offset="0.263" stop-color="#FFB268"/>
<stop offset="0.89" stop-color="#FFBD82"/>
</linearGradient>
<linearGradient id="paint3_linear_549_366" x1="28.7022" y1="18.1106" x2="27.4389" y2="17.8883" gradientUnits="userSpaceOnUse">
<stop offset="0.263" stop-color="#FFB268"/>
<stop offset="0.89" stop-color="#FFBD82"/>
</linearGradient>
<linearGradient id="paint4_linear_549_366" x1="22.8953" y1="28.5655" x2="22.8953" y2="36.6374" gradientUnits="userSpaceOnUse">
<stop offset="0.215" stop-color="#F9B701"/>
<stop offset="0.852" stop-color="#F9DD01"/>
</linearGradient>
<linearGradient id="paint5_linear_549_366" x1="12.1727" y1="30.4213" x2="33.6179" y2="30.4213" gradientUnits="userSpaceOnUse">
<stop offset="0.064" stop-color="#F9B701"/>
<stop offset="0.852" stop-color="#F9DD01"/>
</linearGradient>
<linearGradient id="paint6_linear_549_366" x1="25.4184" y1="24.7099" x2="21.2012" y2="24.7099" gradientUnits="userSpaceOnUse">
<stop offset="0.263" stop-color="#FFB268"/>
<stop offset="0.89" stop-color="#FFBD82"/>
</linearGradient>
<linearGradient id="paint7_linear_549_366" x1="21.5766" y1="13.5498" x2="26.2149" y2="23.5733" gradientUnits="userSpaceOnUse">
<stop offset="0.263" stop-color="#FFB268"/>
<stop offset="0.89" stop-color="#FFBD82"/>
</linearGradient>
<linearGradient id="paint8_linear_549_366" x1="22.8953" y1="21.8177" x2="22.8953" y2="20.8739" gradientUnits="userSpaceOnUse">
<stop offset="0.123" stop-color="#BB0020"/>
<stop offset="0.852" stop-color="#640520"/>
</linearGradient>
<linearGradient id="paint9_linear_549_366" x1="27.7133" y1="19.007" x2="27.5928" y2="19.2924" gradientUnits="userSpaceOnUse">
<stop offset="0.064" stop-color="#F9B701"/>
<stop offset="0.291" stop-color="#F9B901"/>
<stop offset="0.852" stop-color="#F9DD01"/>
</linearGradient>
<linearGradient id="paint10_linear_549_366" x1="18.2791" y1="19.0769" x2="18.1585" y2="19.3622" gradientUnits="userSpaceOnUse">
<stop offset="0.064" stop-color="#F9B701"/>
<stop offset="0.291" stop-color="#F9B901"/>
<stop offset="0.852" stop-color="#F9DD01"/>
</linearGradient>
<linearGradient id="paint11_linear_549_366" x1="21.8658" y1="34.9868" x2="22.1522" y2="28.0291" gradientUnits="userSpaceOnUse">
<stop offset="0.123" stop-color="#7212DE"/>
<stop offset="0.852" stop-color="#450078"/>
</linearGradient>
<linearGradient id="paint12_linear_549_366" x1="21.9378" y1="34.99" x2="22.2242" y2="28.0324" gradientUnits="userSpaceOnUse">
<stop offset="0.123" stop-color="#7212DE"/>
<stop offset="0.852" stop-color="#450078"/>
</linearGradient>
<linearGradient id="paint13_linear_549_366" x1="22.0099" y1="34.9913" x2="22.2963" y2="28.0337" gradientUnits="userSpaceOnUse">
<stop offset="0.123" stop-color="#7212DE"/>
<stop offset="0.852" stop-color="#450078"/>
</linearGradient>
<linearGradient id="paint14_linear_549_366" x1="19.311" y1="9.97214" x2="28.5339" y2="20.2199" gradientUnits="userSpaceOnUse">
<stop/>
<stop offset="1" stop-color="#191919"/>
</linearGradient>
<linearGradient id="paint15_linear_549_366" x1="24.1306" y1="26.8416" x2="25.4805" y2="27.9416" gradientUnits="userSpaceOnUse">
<stop offset="0.064" stop-color="#F9B701"/>
<stop offset="0.291" stop-color="#F9B901"/>
<stop offset="1" stop-color="#F9DD01"/>
</linearGradient>
<linearGradient id="paint16_linear_549_366" x1="21.265" y1="26.6635" x2="20.2528" y2="28.2943" gradientUnits="userSpaceOnUse">
<stop offset="0.064" stop-color="#F9B701"/>
<stop offset="0.291" stop-color="#F9B901"/>
<stop offset="0.953" stop-color="#F9DD01"/>
</linearGradient>
</defs>
</svg>
