<svg width="24" height="24" viewBox="0 0 24 24" fill="none" xmlns="http://www.w3.org/2000/svg">
<path d="M19.8563 10.1187C19.8563 4.01875 16.575 1.94375 13.5063 1.48125C13.5063 1.45 13.5125 1.41875 13.5125 1.38125C13.5125 0.6125 12.8313 0 12 0C11.1687 0 10.5125 0.6125 10.5125 1.38125C10.5125 1.41875 10.5125 1.45 10.5188 1.48125C7.44375 1.95 4.14375 4.03125 4.14375 10.1313C4.14375 17.2438 2.375 18.0063 0 20.0063H24C21.6375 18 19.8563 17.2313 19.8563 10.1187ZM12.0125 24C13.6875 24 15.0625 22.7563 15.2437 21.3125H8.78125C8.95625 22.7563 10.3375 24 12.0125 24Z" fill="#002047" fill-opacity="0.84"/>
<circle cx="17.6" cy="3.2" r="3.2" fill="#1ED760"/>
</svg>
