<svg width="83" height="83" viewBox="0 0 83 83" fill="none" xmlns="http://www.w3.org/2000/svg">
<circle cx="41.5" cy="41.5" r="41.5" fill="#E1762E" fill-opacity="0.17"/>
<path d="M61.2677 59.9744C61.2677 61.4103 60.1395 62.5385 58.7036 62.5385H34.8574C35.3703 61.8205 35.6267 60.8974 35.6267 59.9744H61.2677ZM54.0882 57.9231H34.601C34.0369 57.9231 33.5754 58.3846 33.5754 58.9487V59.9744C33.5754 61.4103 32.4472 62.5385 31.0113 62.5385C29.5754 62.5385 28.4472 61.4103 28.4472 59.9744V23.5641C28.4472 22.5897 28.1395 21.7179 27.678 21H51.5241C52.96 21 54.0882 22.1282 54.0882 23.5641V57.9231ZM37.678 32.2821C37.678 33.9744 39.0626 35.359 40.7549 35.359H41.7805C42.3446 35.359 42.8062 35.8205 42.8062 36.3846C42.8062 36.9487 42.3446 37.4103 41.7805 37.4103H39.2164C38.8062 37.4103 38.4472 37.6667 38.2933 37.9744C38.2421 38.1282 38.1908 38.2308 38.1908 38.4359C38.1908 39 38.6523 39.4615 39.2164 39.4615H40.2421V41.5128C40.2421 42.0769 40.7036 42.5385 41.2677 42.5385C41.4728 42.5385 41.678 42.4872 41.8318 42.3846C42.1395 42.1795 42.2933 41.8718 42.2933 41.5128V39.4103C43.7292 39.1538 44.8574 37.9231 44.8574 36.3846C44.8574 34.6923 43.4728 33.3077 41.7805 33.3077H40.7549C40.1908 33.3077 39.7292 32.8462 39.7292 32.2821C39.7292 31.7179 40.1908 31.2564 40.7549 31.2564H43.319C43.8831 31.2564 44.3446 30.7949 44.3446 30.2308C44.3446 29.6667 43.8831 29.2051 43.319 29.2051H42.2933V27.1538C42.2933 26.5897 41.8318 26.1282 41.2677 26.1282C40.7036 26.1282 40.2421 26.5897 40.2421 27.1538V29.2564C38.8062 29.5128 37.678 30.7436 37.678 32.2821ZM51.0113 51.7692C51.0113 51.2051 50.5498 50.7436 49.9857 50.7436H32.5498C31.9856 50.7436 31.5241 51.2051 31.5241 51.7692C31.5241 52.3333 31.9856 52.7949 32.5498 52.7949H49.9857C50.0369 52.7949 50.0882 52.7949 50.1395 52.7949C50.6523 52.6923 51.0113 52.282 51.0113 51.7692ZM51.0113 46.641C51.0113 46.0769 50.5498 45.6154 49.9857 45.6154H32.5498C31.9856 45.6154 31.5241 46.0769 31.5241 46.641C31.5241 47.2051 31.9856 47.6667 32.5498 47.6667H49.9857C50.5498 47.6667 51.0113 47.2051 51.0113 46.641ZM23.8318 21C22.3959 21 21.2677 22.1282 21.2677 23.5641V26.641H26.3959V23.5641C26.3959 22.1282 25.2677 21 23.8318 21Z" fill="#E1762E"/>
</svg>
